<svg xmlns="http://www.w3.org/2000/svg" viewBox="0 0 318.66 152.8"><defs/><defs><style>.cls-1{fill:#e63946}</style></defs><g id="Ebene_2" data-name="Ebene 2"><g id="Logo"><path d="M2.82 152.8a2.67 2.67 0 01-2-.85A2.68 2.68 0 010 150V76.52a2.65 2.65 0 01.85-2 2.77 2.77 0 012-.79H15a3.7 3.7 0 012.82 1A5.44 5.44 0 0119 76.19l19.89 35.59 19.87-35.59A11.24 11.24 0 0160 74.66a3.5 3.5 0 012.76-1h12.1a3 3 0 012.09.79 2.68 2.68 0 01.84 2V150a2.71 2.71 0 01-.84 2 2.84 2.84 0 01-2.09.85h-13.5a2.81 2.81 0 01-2.09-.85 2.68 2.68 0 01-.85-2v-42.4l-12.66 23.62A6.61 6.61 0 0144.3 133a3.67 3.67 0 01-2.49.79h-5.88a3.62 3.62 0 01-2.48-.79 6.46 6.46 0 01-1.47-1.8l-12.77-23.6V150a2.82 2.82 0 01-.79 2 2.66 2.66 0 01-2 .85zM96.39 152.8a2.66 2.66 0 01-2-.85 2.82 2.82 0 01-.79-2V76.52a2.79 2.79 0 01.79-2 2.76 2.76 0 012-.79h52.77a2.71 2.71 0 012.84 2.79v10.63a2.71 2.71 0 01-2.84 2.85h-36v15.26h33.56a2.68 2.68 0 012 .84 3 3 0 01.79 2.09V118a2.82 2.82 0 01-.79 2 2.66 2.66 0 01-2 .85h-33.61v15.71h37a2.71 2.71 0 012.83 2.82V150a2.82 2.82 0 01-.79 2 2.66 2.66 0 01-2 .85zM168.59 152.8a2.91 2.91 0 01-2.82-2.83V76.52a2.65 2.65 0 01.85-2 2.77 2.77 0 012-.79h12.18a3.7 3.7 0 012.82 1 5.65 5.65 0 011.13 1.53l19.89 35.59 19.89-35.59a11 11 0 011.18-1.53 3.54 3.54 0 012.77-1h12.09a3 3 0 012.1.79 2.68 2.68 0 01.84 2V150a2.71 2.71 0 01-.84 2 2.85 2.85 0 01-2.1.85h-13.44A2.81 2.81 0 01225 152a2.68 2.68 0 01-.85-2v-42.4l-12.66 23.62a6.46 6.46 0 01-1.47 1.8 3.62 3.62 0 01-2.48.79h-5.84a3.62 3.62 0 01-2.48-.79 6.46 6.46 0 01-1.47-1.8L185 107.6V150a2.82 2.82 0 01-.79 2 2.66 2.66 0 01-2 .85zM262.16 152.8a2.66 2.66 0 01-2-.85 2.78 2.78 0 01-.79-2V76.52a2.71 2.71 0 012.83-2.82h52.77a2.71 2.71 0 012.82 2.82v10.63a2.71 2.71 0 01-2.86 2.85h-36.05v15.26h33.56a2.68 2.68 0 012 .84 3 3 0 01.79 2.09V118a2.82 2.82 0 01-.79 2 2.66 2.66 0 01-2 .85h-33.56v15.71h36.95a2.72 2.72 0 012.83 2.82V150a2.79 2.79 0 01-.8 2 2.62 2.62 0 01-2 .85zM2.06 63a2.09 2.09 0 01-1.48-.54A1.86 1.86 0 010 61V2.07A2 2 0 01.58.54 2.09 2.09 0 012.06 0h2.25a1.82 1.82 0 011.34.45 2.18 2.18 0 01.54.72L26.55 41 47 1.17a6.71 6.71 0 01.58-.72A1.67 1.67 0 0148.89 0h2.16a2.06 2.06 0 011.52.54 2.07 2.07 0 01.54 1.53V61a2 2 0 01-.54 1.44 2.06 2.06 0 01-1.52.54h-1.62a2 2 0 01-1.43-.52 2 2 0 01-.54-1.46V12.24L30.32 46.08a2.81 2.81 0 01-1 1.35 3.09 3.09 0 01-1.75.45h-2a2.89 2.89 0 01-1.71-.45 3.56 3.56 0 01-1.07-1.35L5.65 12.24V61a2 2 0 01-.54 1.44 1.92 1.92 0 01-1.43.56zM65.49 63a1.85 1.85 0 01-1.8-1.8 3.15 3.15 0 01.18-1l22.7-58.4a3.1 3.1 0 01.94-1.35A2.67 2.67 0 0189.17 0h3a2.67 2.67 0 011.66.45 3.1 3.1 0 01.94 1.35l22.7 58.41a3.15 3.15 0 01.18 1 1.85 1.85 0 01-1.79 1.8h-1.8a1.67 1.67 0 01-1.34-.5 3.81 3.81 0 01-.63-.85l-5.56-14.4H74.82l-5.56 14.4a2 2 0 01-.59.85 1.84 1.84 0 01-1.39.5zM77 41.85h27.45L90.7 6.39zM130.26 63a1.86 1.86 0 01-2-2V2.07a2.07 2.07 0 01.54-1.53 2 2 0 011.46-.54h1.61a2.07 2.07 0 011.53.54 2.07 2.07 0 01.54 1.53v23.4l27.18-24.12a35 35 0 011.16-.81 4 4 0 012.25-.54H166a1.73 1.73 0 011.26.54 1.73 1.73 0 01.54 1.26 1.58 1.58 0 01-.49 1.2L136.9 30.15l32.29 29.79a1.8 1.8 0 01-1.25 3.06h-1.53a4 4 0 01-2.24-.54q-.81-.54-1.17-.81L133.94 35v26a2 2 0 01-.54 1.44 2.07 2.07 0 01-1.53.54zM181.84 63a1.91 1.91 0 01-1.43-.54 2 2 0 01-.54-1.44V2.07a2.07 2.07 0 01.54-1.53 1.91 1.91 0 011.43-.54h35a2 2 0 011.52.54 2.07 2.07 0 01.54 1.53v1.35a2 2 0 01-.54 1.44 2 2 0 01-1.52.54h-31.32v23h29.33a1.88 1.88 0 012.07 2.07v1.35a2 2 0 01-.54 1.44 2.07 2.07 0 01-1.53.54h-29.33v23.8h32a1.88 1.88 0 012.06 2.07V61a2 2 0 01-.54 1.44 2.06 2.06 0 01-1.52.54zM258.09 63a1.86 1.86 0 01-2-2V2a2 2 0 01.54-1.44 1.94 1.94 0 011.46-.56h1.71a1.91 1.91 0 011.43.54 2 2 0 01.54 1.46v59a2 2 0 01-.54 1.44 1.91 1.91 0 01-1.43.54zM294.34 63a1.86 1.86 0 01-2-2V5.4H274.6a1.91 1.91 0 01-1.43-.54 2 2 0 01-.54-1.44V2.07a2.07 2.07 0 01.54-1.53A1.91 1.91 0 01274.6 0h41.09a2 2 0 011.52.54 2.07 2.07 0 01.54 1.53v1.35a2 2 0 01-.54 1.44 2 2 0 01-1.52.54H298V61a1.94 1.94 0 01-.53 1.44A2.07 2.07 0 01296 63z" class="cls-1"/></g></g></svg>