<svg xmlns="http://www.w3.org/2000/svg" xmlns:xlink="http://www.w3.org/1999/xlink" width="800" height="800"><rect width="100%" height="100%" fill="none"/><g class="currentLayer"><use width="800" height="800" xlink:href="#a"/><path fill="#fff" d="m401 403-40 400h80zM401 403l101 390 75-28zM401 403l255 311 57-57zM401 403l347 204 33-73zM401 403l400 40v-80zM401 403l389-101-28-75zM401 403l311-254-56-57z" opacity=".6"/><path fill="#fff" d="M401 404 605 58l-72-34zM401 403 441 3h-80zM401 404 300 15l-75 28z" opacity=".6"/><path fill="#fff" d="M401 403 147 92l-57 56zM401 403 55 199l-34 72zM401 403 1 363v80zM401 403 11 503l28 75zM401 403 90 658l57 56zM401 403 197 749l73 34z" opacity=".6"/></g></svg>